<?xml version="1.0" standalone="no"?>
<!DOCTYPE svg PUBLIC "-//W3C//DTD SVG 20010904//EN"
 "http://www.w3.org/TR/2001/REC-SVG-20010904/DTD/svg10.dtd">
<svg version="1.0" xmlns="http://www.w3.org/2000/svg"
 width="512.000000pt" height="512.000000pt" viewBox="0 0 512.000000 512.000000"
 preserveAspectRatio="xMidYMid meet">
<metadata>
Created by potrace 1.14, written by Peter Selinger 2001-2017
</metadata>
<g transform="translate(0.000000,512.000000) scale(0.100000,-0.100000)"
fill="#000000" stroke="none">
<path d="M680 2560 l0 -2240 788 0 787 0 -2 2227 c-1 1226 -2 2234 -3 2241 0
9 -164 12 -785 12 l-785 0 0 -2240z"/>
<path d="M3537 3344 c-1 -1 -45 -4 -97 -7 -322 -21 -542 -120 -685 -308 -72
-94 -94 -314 -46 -441 55 -143 208 -283 380 -349 265 -101 665 -109 926 -17
121 42 198 89 280 172 33 34 72 84 87 112 62 115 74 304 27 429 -84 226 -342
377 -687 401 -89 6 -182 10 -185 8z"/>
<path d="M2790 1066 l0 -746 811 0 812 0 -6 238 c-3 130 -8 253 -12 272 -3 19
-11 62 -16 95 -40 230 -126 410 -263 547 -87 88 -141 126 -261 186 -92 46
-268 101 -370 116 -22 4 -55 9 -73 12 -64 12 -111 15 -364 21 l-258 5 0 -746z"/>
</g>
</svg>
